<?xml version="1.0" encoding="UTF-8"?>
<svg id="Layer_1" xmlns="http://www.w3.org/2000/svg" version="1.1" viewBox="0 0 600 600">
  <!-- Generator: Adobe Illustrator 30.0.0, SVG Export Plug-In . SVG Version: 2.1.1 Build 123)  -->
  <defs>
    <style>
      .st0 {
        fill: #fff;
      }

      .st1 {
        fill: #0061af;
      }

      .st2 {
        fill: #f15a24;
      }
    </style>
  </defs>
  <path class="st0" d="M85.38,206.8v52.89h-39.23l4.72,29.79c53.17,9.46,58.4-29.49,55.4-71.97l-20.88-10.7ZM145.38,206.8l-23.19,10.7c-3.14,39.24,3.95,81.22,54.04,71.78,5.34-1.82,6.82-23.44,8.37-29.6h-39.23v-52.89ZM304.62,307.97h-39.23c-1.26,5.87,4.95,5.11,6.89,8.67,4.18,7.71,4.54,46.4-4.05,51.13-16.97,5.5-30.19-5.99-35.82-21.19-7.04-19.02-7.37-83.36,1.37-101.22,8.87-18.14,35.38-13.51,45.19,1.93,3.62,5.69,6.99,17.09,7.22,23.88,38.12-46.77-36.44-62.88-64.65-32.69-22.44,24.01-23.45,90.73-8.66,118.36,5.18,9.67,20.33,20.89,30.83,22.13,9.44,1.11,25.34.68,34.41-1.94,4.01-1.16,8.42-7.78,15.96-6.72,3.71-2.4-.21-41.7,1.3-49.73,1.33-7.11,9.88-5.32,9.25-12.63ZM316.15,376.96h39.23c-.3-9.07-18.46-7.51-18.46-19.55v-90.83l7.09,1.43,60.32,108.42,8.74.53v-129.92c0-6.84,6.14-14.92,13.62-15.19l.23-6.66h-36.92c-4.27,10.58,16.15,7.34,16.15,17.25v88.53l-56.51-103.5c-4.29-4.47-39.64-3.97-33.48,4.58,7.35.96,12.98,10.21,13.94,17.18,3.07,22.46,1.87,79.86-.02,103.66-.27,3.44-1.1,12.05-2.98,14.28-2.33,2.76-12.43,2.41-10.95,9.78ZM499.62,225.19c-19.45-1.85-41.42,1.36-61.15,0-2.55,9.99,6.97,6.15,11.31,12.88,2.39,3.71,2.26,7.05,2.64,11.16,2.31,25.22,2.48,78.55-.14,103.55-1.02,9.72-1.59,19.53-13.83,17.29l.02,6.89h50.77c1.57-8.21-11.34-6.96-13.39-9.67-.77-1.02-2.5-11.98-2.72-14.52-1.74-20.1-3.2-90.2.59-107.44,3.96-18.01,30.89-8.91,33.77,11.12,2.8,19.45,1.32,48.38-22.83,50.42l-2.34,7.99c23.66,4.15,45.53-11.47,48.51-35.57,3.24-26.21-1.95-51.32-31.21-54.1ZM126.31,280.99c-2.79-2.24-14.93-3.82-18.59-2.57-18.16,12.28-11.68,53.39,13.11,45.24,12.59-4.14,14.37-35.52,5.48-42.66ZM46.15,340.16h33.46c.41,0,5.77,5.34,5.77,5.75v44.84c9.16-.03,20.47.05,21.83-11.15.73-5.99-.54-28.99-1.61-35.44-4.96-29.87-27.89-35.05-54.74-31.49l-4.71,27.49ZM145.38,342.46h35.77c6.41,0-.62-28.14-4.91-29.6-50.13-9.39-57.18,32.33-54.04,71.77l23.18,10.72v-52.89ZM556.15,397.65H203.08v2.3h353.08v-2.3Z"/>
  <path class="st1" d="M316.15,376.96c-1.48-7.37,8.63-7.02,10.95-9.78,1.88-2.23,2.71-10.84,2.98-14.28,1.88-23.8,3.09-81.19.02-103.66-.96-6.98-6.59-16.22-13.94-17.18-6.16-8.56,29.18-9.06,33.48-4.58l56.51,103.5v-88.53c0-9.9-20.43-6.66-16.15-17.25h36.92l-.23,6.66c-7.47.26-13.62,8.35-13.62,15.19v129.92l-8.74-.53-60.32-108.42-7.09-1.43v90.83c0,12.04,18.16,10.47,18.46,19.55h-39.23Z"/>
  <path class="st1" d="M304.62,307.97c.62,7.3-7.92,5.52-9.25,12.63-1.51,8.02,2.42,47.32-1.3,49.73-7.55-1.06-11.95,5.56-15.96,6.72-9.07,2.62-24.97,3.06-34.41,1.94-10.5-1.24-25.65-12.46-30.83-22.13-14.79-27.63-13.78-94.35,8.66-118.36,28.22-30.19,102.78-14.08,64.65,32.69-.22-6.79-3.6-18.19-7.22-23.88-9.81-15.44-36.32-20.07-45.19-1.93-8.74,17.86-8.41,82.2-1.37,101.22,5.63,15.2,18.85,26.68,35.82,21.19,8.59-4.73,8.23-43.42,4.05-51.13-1.93-3.56-8.14-2.8-6.89-8.67h39.23Z"/>
  <path class="st1" d="M499.62,225.19c29.27,2.78,34.46,27.89,31.21,54.1-2.98,24.11-24.86,39.72-48.51,35.57l2.34-7.99c24.15-2.04,25.62-30.98,22.83-50.42-2.88-20.04-29.81-29.13-33.77-11.12-3.79,17.25-2.33,87.34-.59,107.44.22,2.54,1.95,13.49,2.72,14.52,2.05,2.71,14.96,1.46,13.39,9.67h-50.77l-.02-6.89c12.24,2.24,12.81-7.57,13.83-17.29,2.62-24.99,2.45-78.32.14-103.55-.38-4.11-.24-7.45-2.64-11.16-4.34-6.73-13.87-2.89-11.31-12.88,19.74,1.36,41.7-1.85,61.15,0Z"/>
  <path class="st2" d="M145.38,206.8v52.89h39.23c-1.56,6.16-3.03,27.78-8.37,29.6-50.1,9.43-57.19-32.54-54.04-71.78l23.19-10.7Z"/>
  <path class="st2" d="M145.38,342.46v52.89l-23.18-10.72c-3.14-39.44,3.91-81.16,54.04-71.77,4.29,1.46,11.32,29.6,4.91,29.6h-35.77Z"/>
  <path class="st2" d="M85.38,206.8l20.88,10.7c3,42.48-2.23,81.43-55.4,71.97l-4.72-29.79h39.23v-52.89Z"/>
  <path class="st2" d="M46.15,340.16l4.71-27.49c26.85-3.56,49.78,1.61,54.74,31.49,1.07,6.45,2.34,29.45,1.61,35.44-1.36,11.21-12.67,11.12-21.83,11.15v-44.84c0-.41-5.36-5.75-5.77-5.75h-33.46Z"/>
  <path class="st2" d="M126.31,280.99c8.89,7.14,7.11,38.52-5.48,42.66-24.79,8.15-31.27-32.95-13.11-45.24,3.66-1.24,15.8.33,18.59,2.57Z"/>
  <rect x="203.08" y="397.65" width="353.08" height="2.3"/>
</svg>