<?xml version="1.0" encoding="UTF-8"?>
<svg id="Layer_1" xmlns="http://www.w3.org/2000/svg" version="1.1" viewBox="0 0 600 600">
  <!-- Generator: Adobe Illustrator 30.0.0, SVG Export Plug-In . SVG Version: 2.1.1 Build 123)  -->
  <defs>
    <style>
      .st0 {
        fill: #fff;
      }

      .st1 {
        fill: #0061af;
      }

      .st2 {
        fill: #f15a24;
      }
    </style>
  </defs>
  <path class="st0" d="M47.53,139.03v86.22H0l5.71,48.56c64.41,15.41,70.75-48.08,67.11-117.34l-25.3-17.45ZM120.22,139.03l-28.09,17.44c-3.81,63.98,4.78,132.41,65.47,117.03,6.47-2.96,8.26-38.21,10.15-48.25h-47.53v-86.22ZM313.12,303.97h-47.53c-1.52,9.57,6,8.32,8.34,14.14,5.06,12.57,5.5,75.64-4.9,83.36-20.56,8.96-36.58-9.77-43.4-34.54-8.53-31-8.92-135.9,1.66-165.01,10.75-29.57,42.86-22.03,54.75,3.14,4.38,9.27,8.47,27.86,8.74,38.93,46.18-76.24-44.14-102.52-78.33-53.29-27.18,39.15-28.41,147.92-10.49,192.96,6.27,15.77,24.63,34.06,37.35,36.08,11.43,1.82,30.7,1.11,41.69-3.16,4.86-1.89,10.2-12.69,19.34-10.96,4.5-3.92-.25-67.99,1.57-81.07,1.62-11.58,11.97-8.68,11.21-20.58ZM327.1,416.43h47.53c-.36-14.79-22.37-12.24-22.37-31.86v-148.07l8.59,2.32,73.08,176.75,10.58.86v-211.8c0-11.15,7.44-24.33,16.5-24.76l.28-10.85h-44.73c-5.18,17.25,19.57,11.97,19.57,28.12v144.33l-68.46-168.74c-5.2-7.29-48.02-6.48-40.56,7.47,8.9,1.57,15.73,16.64,16.88,28.02,3.73,36.62,2.26,130.2-.02,168.99-.33,5.61-1.33,19.65-3.61,23.29-2.82,4.5-15.06,3.93-13.27,15.95ZM549.36,169.02c-23.56-3.01-50.18,2.22-74.09,0-3.09,16.29,8.44,10.03,13.71,21,2.9,6.05,2.74,11.49,3.2,18.19,2.79,41.12,3,128.07-.17,168.81-1.23,15.85-1.93,31.84-16.75,28.19l.02,11.23h61.51c1.9-13.38-13.74-11.35-16.23-15.77-.94-1.67-3.03-19.53-3.3-23.66-2.11-32.77-3.88-147.05.72-175.16,4.8-29.36,37.42-14.53,40.92,18.13,3.39,31.7,1.6,78.87-27.65,82.2l-2.83,13.03c28.66,6.76,55.16-18.69,58.77-57.99,3.93-42.73-2.36-83.66-37.82-88.19ZM97.1,259.99c-3.38-3.65-18.09-6.22-22.53-4.2-22,20.02-14.15,87.04,15.89,73.75,15.25-6.75,17.41-57.91,6.64-69.55ZM0,356.45h40.54c.49,0,6.99,8.71,6.99,9.37v73.1c11.1-.05,24.8.09,26.45-18.18.88-9.77-.66-47.27-1.95-57.77-6-48.7-33.79-57.14-66.31-51.33l-5.71,44.82ZM120.22,360.2h43.33c7.76,0-.75-45.87-5.95-48.25-60.73-15.31-69.27,52.7-65.46,117l28.08,17.47v-86.22ZM617.85,450.17H190.11v3.75h427.75v-3.75Z"/>
  <path class="st1" d="M327.1,416.43c-1.79-12.02,10.45-11.45,13.27-15.95,2.28-3.64,3.28-17.67,3.61-23.29,2.28-38.79,3.74-132.37.02-168.99-1.16-11.37-7.98-26.45-16.88-28.02-7.47-13.95,35.35-14.76,40.56-7.47l68.46,168.74v-144.33c0-16.14-24.75-10.86-19.57-28.12h44.73l-.28,10.85c-9.05.43-16.5,13.61-16.5,24.76v211.8l-10.58-.86-73.08-176.75-8.59-2.32v148.07c0,19.63,22,17.07,22.37,31.86h-47.53Z"/>
  <path class="st1" d="M313.12,303.97c.76,11.9-9.59,9-11.21,20.58-1.83,13.08,2.93,77.15-1.57,81.07-9.14-1.73-14.48,9.07-19.34,10.96-10.99,4.27-30.25,4.98-41.69,3.16-12.72-2.02-31.08-20.31-37.35-36.08-17.92-45.05-16.7-153.82,10.49-192.96,34.18-49.22,124.51-22.95,78.33,53.29-.27-11.07-4.36-29.66-8.74-38.93-11.89-25.17-44-32.72-54.75-3.14-10.58,29.11-10.19,134.01-1.66,165.01,6.82,24.77,22.84,43.5,43.4,34.54,10.4-7.71,9.97-70.79,4.9-83.36-2.34-5.81-9.86-4.57-8.34-14.14h47.53Z"/>
  <path class="st1" d="M549.36,169.02c35.46,4.53,41.74,45.46,37.82,88.19-3.61,39.3-30.11,64.76-58.77,57.99l2.83-13.03c29.26-3.33,31.04-50.5,27.65-82.2-3.49-32.67-36.11-47.5-40.92-18.13-4.6,28.11-2.83,142.39-.72,175.16.27,4.14,2.36,22,3.3,23.66,2.48,4.42,18.12,2.39,16.23,15.77h-61.51l-.02-11.23c14.83,3.65,15.52-12.33,16.75-28.19,3.17-40.75,2.96-127.69.17-168.81-.45-6.7-.3-12.14-3.2-18.19-5.26-10.97-16.8-4.7-13.71-21,23.91,2.22,50.52-3.01,74.09,0Z"/>
  <path class="st2" d="M120.22,139.03v86.22h47.53c-1.89,10.04-3.67,45.29-10.15,48.25-60.69,15.38-69.28-53.05-65.47-117.03l28.09-17.44Z"/>
  <path class="st2" d="M120.22,360.2v86.22l-28.08-17.47c-3.8-64.3,4.73-132.31,65.46-117,5.2,2.38,13.71,48.25,5.95,48.25h-43.33Z"/>
  <path class="st2" d="M47.53,139.03l25.3,17.45c3.64,69.25-2.7,132.75-67.11,117.34L0,225.25h47.53v-86.22Z"/>
  <path class="st2" d="M0,356.45l5.71-44.82c32.53-5.81,60.31,2.63,66.31,51.33,1.3,10.51,2.83,48.01,1.95,57.77-1.65,18.27-15.35,18.13-26.45,18.18v-73.1c0-.66-6.5-9.37-6.99-9.37H0Z"/>
  <path class="st2" d="M97.1,259.99c10.77,11.64,8.61,62.8-6.64,69.55-30.04,13.29-37.88-53.72-15.89-73.75,4.44-2.02,19.15.55,22.53,4.2Z"/>
  <rect x="190.11" y="450.17" width="427.75" height="3.75"/>
</svg>